ffmpeg started on 2016-12-08 at 05:08:37
Report written to "Output/x264/results/ffmpeg/sintelslower10000k.log"
Command line:
Tools/ffmpeg/ffmpeg -benchmark -y -i Input/y4m/sintel.y4m -c:v libx264 -preset slower -b:v 10000k -an Output/x264/encoded/sintelslower10000k.mkv
ffmpeg version N-82227-gdb23fde Copyright (c) 2000-2016 the FFmpeg developers
  built with gcc 5.4.0 (Ubuntu 5.4.0-6ubuntu1~16.04.2) 20160609
  configuration: --prefix=/home/jaroslav/ffmpeg_build --pkg-config-flags=--static --extra-cflags=-I/home/jaroslav/ffmpeg_build/include --extra-ldflags=-L/home/jaroslav/ffmpeg_build/lib --bindir=/home/jaroslav/bin --enable-gpl --enable-libass --enable-libfdk-aac --enable-libfreetype --enable-libmp3lame --enable-libopus --enable-libtheora --enable-libvorbis --enable-libvpx --enable-libx264 --enable-libx265 --enable-nvenc --enable-libmfx --enable-libxvid --enable-libgsm --enable-libopencore-amrnb --enable-version3 --enable-nonfree
  libavutil      55. 35.100 / 55. 35.100
  libavcodec     57. 66.101 / 57. 66.101
  libavformat    57. 57.100 / 57. 57.100
  libavdevice    57.  2.100 / 57.  2.100
  libavfilter     6. 66.100 /  6. 66.100
  libswscale      4.  3.100 /  4.  3.100
  libswresample   2.  4.100 /  2.  4.100
  libpostproc    54.  2.100 / 54.  2.100
Input #0, yuv4mpegpipe, from 'Input/y4m/sintel.y4m':
  Duration: 00:00:20.83, start: 0.000000, bitrate: 2057307 kb/s
    Stream #0:0: Video: rawvideo (I420 / 0x30323449), yuv420p(progressive), 4096x1744, SAR 1:1 DAR 256:109, 24 fps, 24 tbr, 24 tbn, 24 tbc
[libx264 @ 0x3cc91c0] using SAR=1/1
[libx264 @ 0x3cc91c0] DPB size (8 frames, 223232 mbs) > level limit (6 frames, 184320 mbs)
[libx264 @ 0x3cc91c0] using cpu capabilities: MMX2 SSE2Fast SSSE3 SSE4.2 AVX FMA3 AVX2 LZCNT BMI2
[libx264 @ 0x3cc91c0] profile High, level 5.2
[libx264 @ 0x3cc91c0] 264 - core 148 - H.264/MPEG-4 AVC codec - Copyleft 2003-2016 - http://www.videolan.org/x264.html - options: cabac=1 ref=8 deblock=1:0:0 analyse=0x3:0x133 me=umh subme=9 psy=1 psy_rd=1.00:0.00 mixed_ref=1 me_range=16 chroma_me=1 trellis=2 8x8dct=1 cqm=0 deadzone=21,11 fast_pskip=1 chroma_qp_offset=-2 threads=6 lookahead_threads=1 sliced_threads=0 nr=0 decimate=1 interlaced=0 bluray_compat=0 constrained_intra=0 bframes=3 b_pyramid=2 b_adapt=2 b_bias=0 direct=3 weightb=1 open_gop=0 weightp=2 keyint=250 keyint_min=24 scenecut=40 intra_refresh=0 rc_lookahead=60 rc=abr mbtree=1 bitrate=10000 ratetol=1.0 qcomp=0.60 qpmin=0 qpmax=69 qpstep=4 ip_ratio=1.40 aq=1:1.00
Output #0, matroska, to 'Output/x264/encoded/sintelslower10000k.mkv':
  Metadata:
    encoder         : Lavf57.57.100
    Stream #0:0: Video: h264 (libx264) (H264 / 0x34363248), yuv420p, 4096x1744 [SAR 1:1 DAR 256:109], q=-1--1, 10000 kb/s, 24 fps, 1k tbn, 24 tbc
    Metadata:
      encoder         : Lavc57.66.101 libx264
    Side data:
      cpb: bitrate max/min/avg: 0/0/10000000 buffer size: 0 vbv_delay: -1
Stream mapping:
  Stream #0:0 -> #0:0 (rawvideo (native) -> h264 (libx264))
Press [q] to stop, [?] for help
frame=   10 fps=0.0 q=0.0 size=       0kB time=00:00:00.00 bitrate=N/A speed=   0x    frame=   16 fps= 15 q=0.0 size=       0kB time=00:00:00.00 bitrate=N/A speed=   0x    frame=   22 fps= 14 q=0.0 size=       0kB time=00:00:00.00 bitrate=N/A speed=   0x    frame=   26 fps= 12 q=0.0 size=       0kB time=00:00:00.00 bitrate=N/A speed=   0x    frame=   28 fps=5.4 q=0.0 size=       0kB time=00:00:00.00 bitrate=N/A speed=   0x    frame=   29 fps=3.5 q=0.0 size=       0kB time=00:00:00.00 bitrate=N/A speed=   0x    frame=   30 fps=2.7 q=0.0 size=       0kB time=00:00:00.00 bitrate=N/A speed=   0x    frame=   39 fps=3.4 q=0.0 size=       0kB time=00:00:00.00 bitrate=N/A speed=   0x    frame=   48 fps=4.0 q=0.0 size=       0kB time=00:00:00.00 bitrate=N/A speed=   0x    frame=   57 fps=4.5 q=0.0 size=       0kB time=00:00:00.00 bitrate=N/A speed=   0x    frame=   66 fps=5.0 q=0.0 size=       0kB time=00:00:00.00 bitrate=N/A speed=   0x    frame=   67 fps=3.4 q=0.0 size=       0kB time=00:00:00.00 bitrate=N/A speed=   0x    frame=   71 fps=3.5 q=24.0 size=       1kB time=-00:00:00.08 bitrate=N/A speed=N/A    frame=   73 fps=3.4 q=33.0 size=       1kB time=00:00:00.00 bitrate=5888.0kbits/s speed=4.62e-05x    frame=   74 fps=3.3 q=28.0 size=       1kB time=00:00:00.04 bitrate= 136.9kbits/s speed=0.00191x    frame=   75 fps=3.2 q=31.0 size=       1kB time=00:00:00.08 bitrate=  70.1kbits/s speed=0.00359x    frame=   77 fps=3.2 q=37.0 size=       1kB time=00:00:00.16 bitrate=  35.0kbits/s speed=0.00697x    frame=   78 fps=3.1 q=43.0 size=       1kB time=00:00:00.20 bitrate=  28.2kbits/s speed=0.00831x    frame=   80 fps=3.1 q=43.0 size=       1kB time=00:00:00.29 bitrate=  20.1kbits/s speed=0.0113x    frame=   81 fps=3.0 q=43.0 size=       1kB time=00:00:00.33 bitrate=  17.6kbits/s speed=0.0125x    frame=   84 fps=3.1 q=42.0 size=       1kB time=00:00:00.45 bitrate=  12.8kbits/s speed=0.0168x    frame=   85 fps=3.0 q=42.0 size=       1kB time=00:00:00.50 bitrate=  11.8kbits/s speed=0.0178x    frame=   86 fps=3.0 q=42.0 size=       1kB time=00:00:00.54 bitrate=  10.8kbits/s speed=0.0187x    frame=   90 fps=3.0 q=42.0 size=       1kB time=00:00:00.70 bitrate=   8.3kbits/s speed=0.0234x    frame=   92 fps=2.9 q=42.0 size=       1kB time=00:00:00.79 bitrate=   7.4kbits/s speed=0.0252x    frame=   93 fps=2.9 q=42.0 size=       1kB time=00:00:00.83 bitrate=   7.1kbits/s speed=0.0261x    frame=   94 fps=2.9 q=42.0 size=       1kB time=00:00:00.87 bitrate=   6.7kbits/s speed=0.0269x    frame=   96 fps=2.9 q=41.0 size=       1kB time=00:00:00.95 bitrate=   6.1kbits/s speed=0.0289x    frame=   99 fps=2.9 q=41.0 size=       1kB time=00:00:01.08 bitrate=   5.4kbits/s speed=0.0316x    frame=  100 fps=2.9 q=41.0 size=       1kB time=00:00:01.12 bitrate=   5.2kbits/s speed=0.0322x    frame=  101 fps=2.8 q=41.0 size=       1kB time=00:00:01.16 bitrate=   5.0kbits/s speed=0.0329x    frame=  103 fps=2.8 q=41.0 size=       1kB time=00:00:01.25 bitrate=   4.7kbits/s speed=0.0342x    frame=  105 fps=2.8 q=40.0 size=       1kB time=00:00:01.33 bitrate=   4.4kbits/s speed=0.0357x    frame=  107 fps=2.8 q=40.0 size=       1kB time=00:00:01.41 bitrate=   4.2kbits/s speed=0.037x    frame=  109 fps=2.8 q=40.0 size=       1kB time=00:00:01.50 bitrate=   3.9kbits/s speed=0.0383x    frame=  111 fps=2.8 q=40.0 size=       1kB time=00:00:01.58 bitrate=   3.7kbits/s speed=0.0395x    frame=  113 fps=2.8 q=40.0 size=       1kB time=00:00:01.66 bitrate=   3.5kbits/s speed=0.0409x    frame=  115 fps=2.8 q=39.0 size=       1kB time=00:00:01.75 bitrate=   3.4kbits/s speed=0.0421x    frame=  118 fps=2.8 q=39.0 size=       1kB time=00:00:01.87 bitrate=   3.1kbits/s speed=0.0441x    frame=  119 fps=2.8 q=39.0 size=       1kB time=00:00:01.91 bitrate=   3.1kbits/s speed=0.0445x    frame=  121 fps=2.8 q=39.0 size=       1kB time=00:00:02.00 bitrate=   2.9kbits/s speed=0.0456x    frame=  122 fps=2.7 q=39.0 size=       1kB time=00:00:02.04 bitrate=   2.9kbits/s speed=0.046x    frame=  124 fps=2.7 q=39.0 size=       1kB time=00:00:02.12 bitrate=   2.8kbits/s speed=0.0466x    frame=  126 fps=2.7 q=39.0 size=       1kB time=00:00:02.20 bitrate=   2.7kbits/s speed=0.0472x    frame=  128 fps=2.7 q=39.0 size=       1kB time=00:00:02.29 bitrate=   2.6kbits/s speed=0.048x    frame=  130 fps=2.7 q=39.0 size=       1kB time=00:00:02.37 bitrate=   2.5kbits/s speed=0.0486x    frame=  132 fps=2.6 q=39.0 size=       1kB time=00:00:02.45 bitrate=   2.4kbits/s speed=0.0493x    frame=  134 fps=2.6 q=39.0 size=       1kB time=00:00:02.54 bitrate=   2.3kbits/s speed=0.05x    frame=  136 fps=2.6 q=39.0 size=       1kB time=00:00:02.62 bitrate=   2.2kbits/s speed=0.051x    frame=  137 fps=2.6 q=38.0 size=       1kB time=00:00:02.66 bitrate=   2.2kbits/s speed=0.0503x    frame=  139 fps=2.6 q=38.0 size=       1kB time=00:00:02.75 bitrate=   2.1kbits/s speed=0.0511x    frame=  141 fps=2.6 q=38.0 size=       1kB time=00:00:02.83 bitrate=   2.1kbits/s speed=0.052x    frame=  143 fps=2.6 q=38.0 size=       1kB time=00:00:02.91 bitrate=   2.0kbits/s speed=0.0521x    frame=  144 fps=2.5 q=38.0 size=       1kB time=00:00:02.95 bitrate=   2.0kbits/s speed=0.0522x    frame=  146 fps=2.5 q=38.0 size=       1kB time=00:00:03.04 bitrate=   1.9kbits/s speed=0.0527x    frame=  148 fps=2.5 q=38.0 size=       1kB time=00:00:03.12 bitrate=   1.9kbits/s speed=0.0536x    frame=  150 fps=2.5 q=38.0 size=       1kB time=00:00:03.20 bitrate=   1.8kbits/s speed=0.0536x    frame=  152 fps=2.5 q=38.0 size=       1kB time=00:00:03.29 bitrate=   1.8kbits/s speed=0.0544x    frame=  154 fps=2.5 q=38.0 size=       1kB time=00:00:03.37 bitrate=   1.7kbits/s speed=0.0548x    frame=  156 fps=2.5 q=38.0 size=       1kB time=00:00:03.45 bitrate=   1.7kbits/s speed=0.0548x    frame=  158 fps=2.5 q=37.0 size=       1kB time=00:00:03.54 bitrate=   1.7kbits/s speed=0.0554x    frame=  160 fps=2.5 q=37.0 size=       1kB time=00:00:03.62 bitrate=   1.6kbits/s speed=0.0559x    frame=  162 fps=2.5 q=37.0 size=       1kB time=00:00:03.70 bitrate=   1.6kbits/s speed=0.0562x    frame=  164 fps=2.5 q=37.0 size=    5155kB time=00:00:03.79 bitrate=11133.3kbits/s speed=0.0569x    frame=  166 fps=2.5 q=37.0 size=    5155kB time=00:00:03.87 bitrate=10894.9kbits/s speed=0.0572x    frame=  167 fps=2.4 q=37.0 size=    5155kB time=00:00:03.91 bitrate=10778.1kbits/s speed=0.0574x    frame=  170 fps=2.5 q=37.0 size=    5155kB time=00:00:04.04 bitrate=10444.8kbits/s speed=0.0584x    frame=  171 fps=2.5 q=37.0 size=    5155kB time=00:00:04.08 bitrate=10340.0kbits/s speed=0.0586x    frame=  173 fps=2.4 q=37.0 size=    5155kB time=00:00:04.16 bitrate=10131.6kbits/s speed=0.0586x    frame=  176 fps=2.5 q=37.0 size=    5155kB time=00:00:04.29 bitrate=9836.6kbits/s speed=0.0598x    frame=  177 fps=2.4 q=37.0 size=    5155kB time=00:00:04.33 bitrate=9743.5kbits/s speed=0.0598x    frame=  178 fps=2.4 q=37.0 size=    5155kB time=00:00:04.37 bitrate=9650.0kbits/s speed=0.0598x    frame=  181 fps=2.4 q=34.0 size=    5155kB time=00:00:04.50 bitrate=9382.0kbits/s speed=0.0609x    frame=  183 fps=2.5 q=36.0 size=    5155kB time=00:00:04.58 bitrate=9212.1kbits/s speed=0.0614x    frame=  184 fps=2.4 q=36.0 size=    5155kB time=00:00:04.62 bitrate=9128.5kbits/s speed=0.0614x    frame=  190 fps=2.5 q=36.0 size=    5981kB time=00:00:04.87 bitrate=10049.2kbits/s speed=0.064x    frame=  191 fps=2.5 q=36.0 size=    5981kB time=00:00:04.91 bitrate=9963.4kbits/s speed=0.064x    frame=  193 fps=2.5 q=36.0 size=    5981kB time=00:00:05.00 bitrate=9798.0kbits/s speed=0.0645x    frame=  195 fps=2.5 q=36.0 size=    5981kB time=00:00:05.08 bitrate=9638.1kbits/s speed=0.0649x    frame=  197 fps=2.5 q=36.0 size=    5981kB time=00:00:05.16 bitrate=9481.4kbits/s speed=0.0649x    frame=  198 fps=2.5 q=36.0 size=    5981kB time=00:00:05.20 bitrate=9406.8kbits/s speed=0.065x    frame=  200 fps=2.5 q=36.0 size=    5981kB time=00:00:05.29 bitrate=9257.5kbits/s speed=0.0656x    frame=  202 fps=2.5 q=36.0 size=    5981kB time=00:00:05.37 bitrate=9114.6kbits/s speed=0.0659x    frame=  203 fps=2.5 q=36.0 size=    5981kB time=00:00:05.41 bitrate=9043.9kbits/s speed=0.0658x    frame=  205 fps=2.5 q=36.0 size=    5981kB time=00:00:05.50 bitrate=8907.5kbits/s speed=0.0663x    frame=  207 fps=2.5 q=36.0 size=    5981kB time=00:00:05.58 bitrate=8775.1kbits/s speed=0.0667x    frame=  208 fps=2.5 q=36.0 size=    5981kB time=00:00:05.62 bitrate=8709.5kbits/s speed=0.0668x    frame=  211 fps=2.5 q=36.0 size=    5981kB time=00:00:05.75 bitrate=8520.2kbits/s speed=0.0672x    frame=  214 fps=2.5 q=36.0 size=    5981kB time=00:00:05.87 bitrate=8339.0kbits/s speed=0.068x    frame=  217 fps=2.5 q=36.0 size=    5981kB time=00:00:06.00 bitrate=8165.3kbits/s speed=0.0684x    frame=  219 fps=2.5 q=36.0 size=    5981kB time=00:00:06.08 bitrate=8053.9kbits/s speed=0.0687x    frame=  221 fps=2.5 q=36.0 size=    5981kB time=00:00:06.16 bitrate=7944.2kbits/s speed=0.0691x    frame=  222 fps=2.5 q=36.0 size=    5981kB time=00:00:06.20 bitrate=7891.8kbits/s speed=0.0691x    frame=  224 fps=2.5 q=36.0 size=    5981kB time=00:00:06.29 bitrate=7786.4kbits/s speed=0.0695x    frame=  228 fps=2.5 q=36.0 size=    5981kB time=00:00:06.45 bitrate=7586.3kbits/s speed=0.0697x    frame=  231 fps=2.5 q=35.0 size=    5981kB time=00:00:06.58 bitrate=7442.3kbits/s speed=0.0705x    frame=  233 fps=2.5 q=35.0 size=    5981kB time=00:00:06.66 bitrate=7348.5kbits/s speed=0.071x    frame=  234 fps=2.5 q=35.0 size=    5981kB time=00:00:06.70 bitrate=7303.6kbits/s speed=0.0706x    frame=  235 fps=2.5 q=35.0 size=    5981kB time=00:00:06.75 bitrate=7258.2kbits/s speed=0.0707x    frame=  237 fps=2.5 q=35.0 size=    5981kB time=00:00:06.83 bitrate=7170.0kbits/s speed=0.071x    frame=  239 fps=2.5 q=35.0 size=    5981kB time=00:00:06.91 bitrate=7083.0kbits/s speed=0.0714x    frame=  241 fps=2.5 q=35.0 size=    5981kB time=00:00:07.00 bitrate=6999.0kbits/s speed=0.0714x    frame=  243 fps=2.5 q=35.0 size=    5981kB time=00:00:07.08 bitrate=6917.0kbits/s speed=0.0717x    frame=  245 fps=2.5 q=35.0 size=    5981kB time=00:00:07.16 bitrate=6835.9kbits/s speed=0.0719x    frame=  247 fps=2.5 q=35.0 size=    5981kB time=00:00:07.25 bitrate=6757.7kbits/s speed=0.0721x    frame=  249 fps=2.5 q=33.0 size=    5981kB time=00:00:07.33 bitrate=6681.2kbits/s speed=0.0723x    frame=  251 fps=2.5 q=35.0 size=    5981kB time=00:00:07.41 bitrate=6605.5kbits/s speed=0.0727x    frame=  253 fps=2.5 q=35.0 size=    5981kB time=00:00:07.50 bitrate=6532.4kbits/s speed=0.073x    frame=  258 fps=2.5 q=35.0 size=    8925kB time=00:00:07.70 bitrate=9483.9kbits/s speed=0.0744x    frame=  262 fps=2.5 q=35.0 size=    8925kB time=00:00:07.87 bitrate=9282.8kbits/s speed=0.0751x    frame=  265 fps=2.5 q=35.0 size=    8925kB time=00:00:08.00 bitrate=9137.8kbits/s speed=0.076x    frame=  266 fps=2.5 q=35.0 size=    8925kB time=00:00:08.04 bitrate=9090.1kbits/s speed=0.076x    frame=  267 fps=2.5 q=35.0 size=    8925kB time=00:00:08.08 bitrate=9044.0kbits/s speed=0.0758x    frame=  269 fps=2.5 q=35.0 size=    8925kB time=00:00:08.16 bitrate=8951.0kbits/s speed=0.0761x    frame=  271 fps=2.5 q=35.0 size=    8925kB time=00:00:08.25 bitrate=8860.9kbits/s speed=0.0761x    frame=  272 fps=2.5 q=35.0 size=    8925kB time=00:00:08.29 bitrate=8816.1kbits/s speed=0.0761x    frame=  273 fps=2.5 q=35.0 size=    8925kB time=00:00:08.33 bitrate=8772.7kbits/s speed=0.076x    frame=  275 fps=2.5 q=34.0 size=    8925kB time=00:00:08.41 bitrate=8685.2kbits/s speed=0.0764x    frame=  278 fps=2.5 q=34.0 size=    8925kB time=00:00:08.54 bitrate=8558.1kbits/s speed=0.0771x    frame=  279 fps=2.5 q=34.0 size=    8925kB time=00:00:08.58 bitrate=8517.2kbits/s speed=0.0765x    frame=  283 fps=2.5 q=34.0 size=    8925kB time=00:00:08.75 bitrate=8354.7kbits/s speed=0.0774x    frame=  286 fps=2.5 q=34.0 size=    8925kB time=00:00:08.87 bitrate=8237.0kbits/s speed=0.0779x    frame=  287 fps=2.5 q=34.0 size=    8925kB time=00:00:08.91 bitrate=8198.2kbits/s speed=0.0775x    frame=  290 fps=2.5 q=34.0 size=    8925kB time=00:00:09.04 bitrate=8084.9kbits/s speed=0.0782x    frame=  292 fps=2.5 q=34.0 size=    8925kB time=00:00:09.12 bitrate=8011.4kbits/s speed=0.0785x    frame=  293 fps=2.5 q=34.0 size=    8925kB time=00:00:09.16 bitrate=7974.7kbits/s speed=0.0781x    frame=  295 fps=2.5 q=34.0 size=    8925kB time=00:00:09.25 bitrate=7903.1kbits/s speed=0.0784x    frame=  298 fps=2.5 q=34.0 size=    8925kB time=00:00:09.37 bitrate=7797.7kbits/s speed=0.079x    frame=  300 fps=2.5 q=34.0 size=    8925kB time=00:00:09.45 bitrate=7729.3kbits/s speed=0.0791x    frame=  301 fps=2.5 q=34.0 size=    8925kB time=00:00:09.50 bitrate=7695.2kbits/s speed=0.0788x    frame=  307 fps=2.5 q=34.0 size=    8925kB time=00:00:09.75 bitrate=7497.9kbits/s speed=0.0795x    frame=  311 fps=2.5 q=34.0 size=    8925kB time=00:00:09.91 bitrate=7371.6kbits/s speed=0.0804x    frame=  313 fps=2.5 q=34.0 size=    8925kB time=00:00:10.00 bitrate=7310.4kbits/s speed=0.0803x    frame=  317 fps=2.5 q=34.0 size=    8925kB time=00:00:10.16 bitrate=7190.4kbits/s speed=0.0812x    frame=  319 fps=2.5 q=33.0 size=    8925kB time=00:00:10.25 bitrate=7132.1kbits/s speed=0.0815x    frame=  320 fps=2.5 q=33.0 size=    8925kB time=00:00:10.29 bitrate=7103.0kbits/s speed=0.081x    frame=  324 fps=2.5 q=33.0 size=    8925kB time=00:00:10.45 bitrate=6990.3kbits/s speed=0.0818x    frame=  326 fps=2.5 q=33.0 size=    8925kB time=00:00:10.54 bitrate=6934.6kbits/s speed=0.0821x    frame=  328 fps=2.5 q=33.0 size=    8925kB time=00:00:10.62 bitrate=6880.4kbits/s speed=0.0823x    frame=  331 fps=2.5 q=31.0 size=    8925kB time=00:00:10.75 bitrate=6800.4kbits/s speed=0.0828x    frame=  333 fps=2.6 q=33.0 size=    8925kB time=00:00:10.83 bitrate=6748.4kbits/s speed=0.0831x    frame=  338 fps=2.6 q=33.0 size=   12097kB time=00:00:11.04 bitrate=8973.9kbits/s speed=0.0843x    frame=  342 fps=2.6 q=33.0 size=   12097kB time=00:00:11.20 bitrate=8841.0kbits/s speed=0.0852x    frame=  344 fps=2.6 q=33.0 size=   12097kB time=00:00:11.29 bitrate=8775.3kbits/s speed=0.0855x    frame=  346 fps=2.6 q=33.0 size=   12097kB time=00:00:11.37 bitrate=8711.2kbits/s speed=0.0858x    frame=  348 fps=2.6 q=33.0 size=   12097kB time=00:00:11.45 bitrate=8648.1kbits/s speed=0.0859x    frame=  350 fps=2.6 q=33.0 size=   12097kB time=00:00:11.54 bitrate=8585.2kbits/s speed=0.0862x    frame=  352 fps=2.6 q=33.0 size=   12097kB time=00:00:11.62 bitrate=8523.9kbits/s speed=0.0863x    frame=  355 fps=2.6 q=33.0 size=   12097kB time=00:00:11.75 bitrate=8433.2kbits/s speed=0.0865x    frame=  356 fps=2.6 q=33.0 size=   12097kB time=00:00:11.79 bitrate=8403.2kbits/s speed=0.0864x    frame=  361 fps=2.6 q=32.0 size=   12097kB time=00:00:12.00 bitrate=8257.6kbits/s speed=0.0876x    frame=  362 fps=2.6 q=32.0 size=   12097kB time=00:00:12.04 bitrate=8228.8kbits/s speed=0.0875x    frame=  364 fps=2.6 q=32.0 size=   12097kB time=00:00:12.12 bitrate=8172.4kbits/s speed=0.0876x    frame=  368 fps=2.6 q=32.0 size=   12097kB time=00:00:12.29 bitrate=8061.4kbits/s speed=0.0882x    frame=  370 fps=2.6 q=32.0 size=   12097kB time=00:00:12.37 bitrate=8007.4kbits/s speed=0.0884x    frame=  374 fps=2.7 q=32.0 size=   12097kB time=00:00:12.54 bitrate=7900.7kbits/s speed=0.0891x    frame=  378 fps=2.7 q=32.0 size=   12097kB time=00:00:12.70 bitrate=7797.5kbits/s speed=0.0896x    frame=  382 fps=2.7 q=32.0 size=   12097kB time=00:00:12.87 bitrate=7696.4kbits/s speed=0.0902x    frame=  385 fps=2.7 q=32.0 size=   12097kB time=00:00:13.00 bitrate=7622.4kbits/s speed=0.0908x    frame=  389 fps=2.7 q=31.0 size=   12097kB time=00:00:13.16 bitrate=7525.7kbits/s speed=0.0913x    frame=  392 fps=2.7 q=31.0 size=   12097kB time=00:00:13.29 bitrate=7455.0kbits/s speed=0.0916x    frame=  396 fps=2.7 q=31.0 size=   12097kB time=00:00:13.45 bitrate=7363.0kbits/s speed=0.0922x    frame=  398 fps=2.7 q=31.0 size=   12097kB time=00:00:13.54 bitrate=7317.4kbits/s speed=0.0924x    frame=  402 fps=2.7 q=31.0 size=   12097kB time=00:00:13.70 bitrate=7228.8kbits/s speed=0.0932x    frame=  403 fps=2.7 q=31.0 size=   12097kB time=00:00:13.75 bitrate=7206.7kbits/s speed=0.0931x    frame=  406 fps=2.7 q=31.0 size=   12097kB time=00:00:13.87 bitrate=7141.8kbits/s speed=0.0936x    frame=  407 fps=2.7 q=31.0 size=   12097kB time=00:00:13.91 bitrate=7120.2kbits/s speed=0.0936x    frame=  411 fps=2.7 q=31.0 size=   12097kB time=00:00:14.08 bitrate=7036.3kbits/s speed=0.0941x    frame=  415 fps=2.8 q=30.0 size=   12097kB time=00:00:14.25 bitrate=6953.8kbits/s speed=0.0947x    frame=  417 fps=2.8 q=30.0 size=   12097kB time=00:00:14.33 bitrate=6913.6kbits/s speed=0.0949x    frame=  420 fps=2.8 q=30.0 size=   12097kB time=00:00:14.45 bitrate=6853.8kbits/s speed=0.0954x    frame=  423 fps=2.8 q=30.0 size=   12097kB time=00:00:14.58 bitrate=6795.1kbits/s speed=0.0956x    frame=  426 fps=2.8 q=30.0 size=   12097kB time=00:00:14.70 bitrate=6737.3kbits/s speed=0.096x    frame=  430 fps=2.8 q=30.0 size=   12097kB time=00:00:14.87 bitrate=6661.7kbits/s speed=0.0967x    frame=  432 fps=2.8 q=30.0 size=   12097kB time=00:00:14.95 bitrate=6624.7kbits/s speed=0.0968x    frame=  438 fps=2.8 q=30.0 size=   15167kB time=00:00:15.20 bitrate=8169.6kbits/s speed=0.098x    frame=  439 fps=2.8 q=30.0 size=   15167kB time=00:00:15.25 bitrate=8147.1kbits/s speed=0.0979x    frame=  441 fps=2.8 q=30.0 size=   15167kB time=00:00:15.33 bitrate=8103.0kbits/s speed=0.098x    frame=  444 fps=2.8 q=30.0 size=   15167kB time=00:00:15.45 bitrate=8037.5kbits/s speed=0.0982x    frame=  447 fps=2.8 q=30.0 size=   15167kB time=00:00:15.58 bitrate=7973.0kbits/s speed=0.0983x    frame=  450 fps=2.8 q=30.0 size=   15167kB time=00:00:15.70 bitrate=7909.6kbits/s speed=0.0984x    frame=  454 fps=2.8 q=29.0 size=   15167kB time=00:00:15.87 bitrate=7826.4kbits/s speed=0.0988x    frame=  455 fps=2.8 q=29.0 size=   15167kB time=00:00:15.91 bitrate=7805.7kbits/s speed=0.0987x    frame=  458 fps=2.8 q=29.0 size=   15167kB time=00:00:16.04 bitrate=7744.9kbits/s speed=0.0988x    frame=  460 fps=2.8 q=29.0 size=   15167kB time=00:00:16.12 bitrate=7705.0kbits/s speed=0.099x    frame=  462 fps=2.8 q=29.0 size=   15167kB time=00:00:16.20 bitrate=7665.6kbits/s speed=0.0991x    frame=  464 fps=2.8 q=29.0 size=   15167kB time=00:00:16.29 bitrate=7626.0kbits/s speed=0.0989x    frame=  466 fps=2.8 q=29.0 size=   15167kB time=00:00:16.37 bitrate=7587.4kbits/s speed=0.099x    frame=  468 fps=2.8 q=29.0 size=   15167kB time=00:00:16.45 bitrate=7549.1kbits/s speed=0.099x    frame=  470 fps=2.8 q=29.0 size=   15167kB time=00:00:16.54 bitrate=7510.8kbits/s speed=0.0992x    frame=  471 fps=2.8 q=30.0 size=   15167kB time=00:00:16.58 bitrate=7492.2kbits/s speed=0.0989x    frame=  473 fps=2.8 q=29.0 size=   15167kB time=00:00:16.66 bitrate=7454.5kbits/s speed=0.0991x    frame=  476 fps=2.8 q=30.0 size=   15167kB time=00:00:16.79 bitrate=7399.0kbits/s speed=0.0994x    frame=  477 fps=2.8 q=30.0 size=   15167kB time=00:00:16.83 bitrate=7381.0kbits/s speed=0.0989x    frame=  481 fps=2.8 q=30.0 size=   15167kB time=00:00:17.00 bitrate=7308.5kbits/s speed=0.0995x    frame=  483 fps=2.8 q=30.0 size=   15167kB time=00:00:17.08 bitrate=7273.0kbits/s speed=0.0994x    frame=  486 fps=2.8 q=30.0 size=   15167kB time=00:00:17.20 bitrate=7220.1kbits/s speed=0.0997x    frame=  489 fps=2.8 q=30.0 size=   17984kB time=00:00:17.33 bitrate=8499.2kbits/s speed= 0.1x    frame=  494 fps=2.8 q=30.0 size=   17984kB time=00:00:17.54 bitrate=8397.9kbits/s speed=0.101x    frame=  497 fps=2.8 q=30.0 size=   17984kB time=00:00:17.66 bitrate=8338.5kbits/s speed=0.101x    frame=  498 fps=2.8 q=30.0 size=   17984kB time=00:00:17.70 bitrate=8319.2kbits/s speed=0.101x    frame=  500 fps=2.6 q=-1.0 Lsize=   22077kB time=00:00:20.70 bitrate=8733.3kbits/s speed=0.106x    
video:22073kB audio:0kB subtitle:0kB other streams:0kB global headers:0kB muxing overhead: 0.021900%
bench: utime=693.360s
bench: maxrss=2156400kB
[libx264 @ 0x3cc91c0] frame I:6     Avg QP:23.53  size:194475
[libx264 @ 0x3cc91c0] frame P:273   Avg QP:29.97  size: 55973
[libx264 @ 0x3cc91c0] frame B:221   Avg QP:29.13  size: 27847
[libx264 @ 0x3cc91c0] consecutive B-frames: 35.2% 11.6% 18.0% 35.2%
[libx264 @ 0x3cc91c0] mb I  I16..4: 22.8% 72.4%  4.9%
[libx264 @ 0x3cc91c0] mb P  I16..4: 19.1% 23.1%  0.3%  P16..4: 26.5%  2.0%  1.6%  0.0%  0.0%    skip:27.5%
[libx264 @ 0x3cc91c0] mb B  I16..4:  1.2%  1.9%  0.1%  B16..8: 32.9%  2.6%  0.5%  direct: 1.2%  skip:59.5%  L0:42.3% L1:55.0% BI: 2.7%
[libx264 @ 0x3cc91c0] final ratefactor: 26.96
[libx264 @ 0x3cc91c0] 8x8 transform intra:55.6% inter:86.2%
[libx264 @ 0x3cc91c0] direct mvs  spatial:99.1% temporal:0.9%
[libx264 @ 0x3cc91c0] coded y,uvDC,uvAC intra: 15.5% 25.1% 1.6% inter: 5.9% 6.1% 0.1%
[libx264 @ 0x3cc91c0] i16 v,h,dc,p: 22% 26%  9% 43%
[libx264 @ 0x3cc91c0] i8 v,h,dc,ddl,ddr,vr,hd,vl,hu: 18% 13% 33%  5%  6%  6%  7%  5%  6%
[libx264 @ 0x3cc91c0] i4 v,h,dc,ddl,ddr,vr,hd,vl,hu: 14% 16%  8%  7% 13% 11% 15%  6% 11%
[libx264 @ 0x3cc91c0] i8c dc,h,v,p: 73% 16%  8%  3%
[libx264 @ 0x3cc91c0] Weighted P-Frames: Y:1.1% UV:0.7%
[libx264 @ 0x3cc91c0] ref P L0: 65.0% 16.4%  9.1%  3.0%  2.0%  1.6%  1.5%  1.2%  0.3%  0.0%
[libx264 @ 0x3cc91c0] ref B L0: 88.9%  6.2%  2.5%  1.0%  0.7%  0.5%  0.2%
[libx264 @ 0x3cc91c0] ref B L1: 98.3%  1.7%
[libx264 @ 0x3cc91c0] kb/s:8679.06
